<svg xmlns="http://www.w3.org/2000/svg" width="32" height="32" viewBox="0 0 60 60">
  <g stroke="none" stroke-width="1" fill="none" fill-rule="evenodd">
    <!-- Achtergrond blauw vlak -->
    <rect fill="#8FB6D9" x="0" y="0" width="60" height="60" rx="4"/>

    <!-- Figuur elementen -->
    <path d="M18.2288774,9.77224333 C19.9943929,10.4781251 19.9196149,11.8440522 19.3613658,13.4299944 C18.8031167,15.0161716 17.6924974,17.4652499 17.4392395,18.5526323 C15.9406207,24.9847831 22.2650134,25.0578864 19.4147451,28.6702711 C17.6776829,30.8723026 10.9039162,29.540459 10.8869518,20.7553689 C10.8719356,12.9109844 15.9347419,8.85504363 18.2288774,9.77224333" fill="#93B8D7"/>
    <path d="M19.4302651,18.8734406 C18.8308646,19.9114606 19.0267456,21.9080506 23.0165567,23.934023 C27.0063679,25.9599953 28.1536708,25.8377647 29.0131486,24.8956488 C30.1992515,23.5955382 28.5915224,20.2680449 26.9174807,19.1080294 C24.181496,17.2122796 20.6984358,16.6779908 19.4302651,18.8734406" fill="#93B8D7"/>
    <path d="M29.5184416,31.983943 C29.2604807,32.9175968 29.6637651,34.8041792 34.4857765,35.6287658 C38.5016894,36.3153727 39.9810259,34.7816136 40.060507,33.7797927 C40.1463372,32.6999323 39.858277,31.7578163 38.2110425,31.2444478 C37.3198193,30.9668432 36.0213141,30.9755404 34.2214665,30.7954853 C32.9003868,30.6633822 30.2845644,29.2107184 29.5184416,31.983943" fill="#93B8D7"/>
    <path d="M33.5102751,43.2628666 C31.6887935,40.8215452 29.6909486,38.7257604 27.6343158,40.0324526 C26.4291657,40.7982744 25.8422281,42.6171599 29.1620934,46.9638685 C32.4821938,51.3105771 35.4008911,52.0058812 35.4145298,52.5060865 C35.5194073,56.3497691 28.9450488,50.5337075 27.584934,54.0840366 C26.4284602,57.1021925 29.6323959,58.8790025 31.3656957,58.9377672 C33.0992307,58.9965319 33.7160324,59.1140613 34.5679854,59.1728261 C35.4201735,59.2315908 43.9340594,60.8871104 43.970116,56.2063832 C43.9994315,52.3880869 35.7594967,55.7938548 36.0078164,52.6525281 C36.077186,51.7743482 36.8174422,51.122765 36.9185572,49.8919968 C37.0655267,48.1003781 35.3319918,45.704188 33.5102751,43.2628666" fill="#93B8D7"/>
    <path d="M31.2468268,2.29156539 C32.0710319,2.92246339 33.2540778,4.89766306 31.58615,7.03904934 C29.7649036,9.37717989 25.7118368,7.25318797 26.4617341,4.34409942 C27.2116314,1.43477582 30.1039917,1.41691135 31.2468268,2.29156539" fill="#93B8D7"/>
    <path d="M13.6442277,30.911816 C15.8861596,31.2806233 14.4717249,35.1981144 17.1047134,35.4237709 C19.7377019,35.6494274 18.9478288,32.6792236 21.4679447,32.8670356 C23.9880606,33.0548477 24.100698,36.6644116 24.3264432,39.4844129 C24.5521884,42.3044141 24.853182,45.1241803 24.0256848,47.9065721 C23.1981876,50.6889639 24.7005689,56.0962581 20.4523265,56.2537475 C17.405707,56.3663407 18.6999794,51.5706697 16.7155381,51.4467937 C15.4673553,51.3689892 14.5707236,59.3287876 10.4468762,57.3065762 C6.45988686,55.3511215 11.7637232,46.4898723 14.9982285,46.4026654 C16.3900887,46.3652911 17.1047134,47.8689627 17.7064654,47.718525 C18.4942221,47.5217807 18.2877593,42.9736267 17.443096,42.3796329 C16.4274778,41.665289 13.8323487,43.1689606 11.0488634,41.0635383 C7.73134963,38.5540499 10.6728565,30.4231286 13.6442277,30.911816" fill="#93B8D7"/>

    <!-- Groene accenten -->
    <path d="M18.2035046,13.1304353 C18.7633997,13.5034738 15.968392,18.7048564 15.8703339,21.3401013 C15.6655172,26.8397737 18.9501098,26.377883 17.5502544,27.8707419 C16.6856033,28.7924077 12.7964369,26.0831192 13.0238281,21.7197214 C13.2512194,17.3563237 16.7483887,12.1608175 18.2035046,13.1304353" fill="#74B943"/>
    <path d="M23.3593837,21.2568435 C23.0901356,21.917829 23.8901201,23.1088723 25.3022033,23.8159294 C26.7142865,24.5229865 27.6318467,24.8471326 28.0711092,24.39723 C28.5106069,23.9475624 28.521659,22.8004751 26.9198087,21.5118824 C25.3177233,20.2232897 23.6305131,20.5913918 23.3593837,21.2568435" fill="#74B943"/>
    <path d="M31.8361863,5.5291252 C31.8361863,5.95058575 31.4815783,6.29236134 31.0439618,6.29236134 C30.6065805,6.29236134 30.2519724,5.95058575 30.2519724,5.5291252 C30.2519724,5.10789971 30.6065805,4.76612411 31.0439618,4.76612411 C31.4815783,4.76612411 31.8361863,5.10789971 31.8361863,5.5291252" fill="#74B943"/>
    <path d="M33.4203532,13.4023514 C33.1475778,14.3569255 34.194236,15.8956208 35.836062,16.3852485 C37.4778879,16.874641 38.432602,16.3970014 39.527231,17.0880745 C40.6218601,17.7791476 40.5640129,18.7868449 40.8809967,18.7581677 C41.1979806,18.7294906 41.448887,17.8637687 42.0908499,17.433611 C43.0683736,16.778502 50.0700019,17.4912004 50.185226,15.1300341 C50.2973932,12.8285727 47.3396608,12.5088927 46.2650196,12.7843817 C45.2402305,13.0469424 43.260257,14.315085 41.169057,14.0934245 C39.2678592,13.891744 37.8284984,12.1779298 36.3348177,12.0634561 C34.6318524,11.9329985 33.6508014,12.5960995 33.4203532,13.4023514" fill="#74B943"/>
    <path d="M33.0923408,32.0511933 C32.9028089,32.5826614 35.4711307,34.1770657 36.3853988,34.2457029 C37.2996668,34.3143401 38.7973451,33.7525494 38.8660093,33.1357549 C38.9344383,32.5189604 37.6775549,31.9933688 36.2835783,31.9933688 C34.8896017,31.9933688 33.2804618,31.5234861 33.0923408,32.0511933" fill="#74B943"/>
    <path d="M28.6907092,42.8166074 C28.0292288,43.2072752 28.3937132,44.8273009 30.2448238,47.4543188 C32.0959344,50.0811017 32.5989229,50.9964209 33.421482,50.6537051 C34.2442762,50.3109892 33.9928995,48.1167147 31.8445577,45.306821 C29.6962159,42.4969273 29.1934626,42.5194929 28.6907092,42.8166074" fill="#74B943"/>
    <path d="M14.4600379,50.2776579 C15.4493192,50.797373 13.0869898,57.421802 10.8401196,56.2982206 C8.59324949,55.1753444 12.6188036,49.3108608 14.4600379,50.2776579" fill="#74B943"/>
    <path d="M27.3808227,56.6678742 C27.1724787,57.7613681 28.6602807,58.9448895 33.122981,59.2883105 C37.5854461,59.6312614 39.5513105,59.7563127 39.707451,58.539648 C39.9628252,56.5475241 35.1513956,56.8552161 32.2804341,56.3249233 C29.4092374,55.7941604 27.6303182,55.3581262 27.3808227,56.6678742" fill="#74B943"/>
    <path d="M12.6295971,33.8471841 C14.1275105,33.6600772 14.5877015,36.9504313 17.6764131,37.0381082 C18.7686906,37.069371 19.8957705,35.6578425 21.0553013,35.8122762 C22.4596245,35.9996181 22.7874254,41.5427763 22.4109482,45.5667491 C22.2693872,47.0786477 21.4294269,47.7596133 21.2424817,49.1636199 C21.044014,50.6569489 22.7530933,53.4614362 20.5603079,54.0417966 C18.8620456,54.4912291 18.5899757,50.4428102 19.0268867,48.6333271 C19.4637977,46.824079 18.9958467,45.8570468 18.9332965,44.4532752 C18.8709814,43.0495037 18.9643364,40.5226209 17.6851137,40.17967 C16.4056558,39.836484 13.472144,41.4898881 11.7557751,39.337454 C9.8929069,37.001204 11.7268515,33.9597773 12.6295971,33.8471841" fill="#74B943"/>
  </g>
</svg>
